<?xml version="1.0" encoding="UTF-8"?>
<svg xmlns="http://www.w3.org/2000/svg" viewBox="0 0 400 500" width="400" height="500">
  <rect width="400" height="500" fill="#FAF6EC"/>
  <rect width="400" height="56" fill="#FFFFFF"/>
  <rect x="0" y="56" width="400" height="1.5" fill="#E7E0CC"/>
  <rect x="20" y="17" width="22" height="22" rx="6" fill="#1E40AF"/>
  <circle cx="312" cy="28" r="3.5" fill="#C9BFA6"/>
  <circle cx="330" cy="28" r="3.5" fill="#C9BFA6"/>
  <circle cx="348" cy="28" r="3.5" fill="#C9BFA6"/>
  <rect x="20" y="86" width="66" height="12" rx="12" fill="#1E40AF"/>
  <rect x="20" y="112" width="248" height="15" rx="3" fill="#1F2937"/>
  <rect x="20" y="134" width="176" height="15" rx="3" fill="#1F2937"/>
  <rect x="20" y="162" width="150" height="8" rx="4" fill="#A9A290"/>
  <rect x="20" y="176" width="118" height="8" rx="4" fill="#A9A290"/>
  <rect x="20" y="206" width="112" height="30" rx="6" fill="#1E40AF"/>
  <rect x="292" y="84" width="88" height="186" rx="8" fill="#E3DCD0"/>
  <rect x="292" y="84" width="88" height="186" rx="8" fill="none" stroke="#1E40AF" stroke-width="2" stroke-dasharray="5 5"/>
  <rect x="292" y="112" width="88" height="96" fill="#CDBF9F"/>
  <rect x="304" y="246" width="64" height="14" rx="4" fill="#1E40AF"/>
  <rect x="20" y="334" width="26" height="26" rx="4" fill="#E7E0CC"/>
  <text x="29" y="352" font-family="Georgia, serif" font-size="14" font-weight="bold" fill="#1E40AF">01</text>
  <rect x="58" y="342" width="220" height="10" rx="5" fill="#CFC6AE"/>
  <rect x="20" y="372" width="26" height="26" rx="4" fill="#E7E0CC"/>
  <text x="29" y="390" font-family="Georgia, serif" font-size="14" font-weight="bold" fill="#1E40AF">02</text>
  <rect x="58" y="380" width="190" height="10" rx="5" fill="#CFC6AE"/>
  <rect x="20" y="410" width="26" height="26" rx="4" fill="#E7E0CC"/>
  <text x="29" y="428" font-family="Georgia, serif" font-size="14" font-weight="bold" fill="#1E40AF">03</text>
  <rect x="58" y="418" width="160" height="10" rx="5" fill="#CFC6AE"/>
  <rect x="0" y="446" width="400" height="40" fill="#1E40AF"/>
  <rect x="140" y="460" width="120" height="12" rx="6" fill="#FFFFFF" opacity="0.9"/>
  <rect x="0" y="486" width="400" height="14" fill="#FAF6EC"/>
  <text x="200" y="497" font-family="Arial, Helvetica, sans-serif" font-size="10" fill="#A9A290" text-anchor="middle">classic-services</text>
</svg>