<?xml version="1.0" encoding="UTF-8"?>
<svg xmlns="http://www.w3.org/2000/svg" viewBox="0 0 400 500" width="400" height="500">
  <rect width="400" height="500" fill="#0F1115"/>
  <rect width="400" height="56" fill="#0F1115"/>
  <rect x="0" y="56" width="400" height="1.5" fill="#23272F"/>
  <rect x="20" y="17" width="22" height="22" rx="8" fill="#DB2777"/>
  <circle cx="312" cy="28" r="3.5" fill="#3A3F49"/>
  <circle cx="330" cy="28" r="3.5" fill="#3A3F49"/>
  <circle cx="348" cy="28" r="3.5" fill="#3A3F49"/>
  <rect x="0" y="56" width="400" height="254" fill="#3A2A36"/>
  <path d="M0 56 L400 56 L400 180 L0 276 Z" fill="#0F1115" opacity="0.92"/>
  <rect x="20" y="160" width="66" height="12" rx="12" fill="#DB2777"/>
  <rect x="20" y="186" width="262" height="16" rx="3" fill="#FFFFFF"/>
  <rect x="20" y="208" width="196" height="16" rx="3" fill="#FFFFFF"/>
  <rect x="20" y="238" width="150" height="8" rx="4" fill="#565B66"/>
  <rect x="20" y="270" width="112" height="30" rx="8" fill="#DB2777"/>
  <rect x="20" y="328" width="230" height="56" rx="6" fill="#171A20"/>
  <rect x="292" y="328" width="88" height="118" rx="6" fill="#171A20"/>
  <rect x="20" y="398" width="108" height="48" rx="6" fill="#171A20"/>
  <rect x="142" y="398" width="108" height="48" rx="6" fill="#171A20"/>
  <rect x="20" y="328" width="5" height="56" fill="#DB2777"/>
  <rect x="20" y="398" width="5" height="48" fill="#DB2777"/>
  <rect x="0" y="446" width="400" height="40" fill="#DB2777"/>
  <rect x="140" y="460" width="120" height="12" rx="6" fill="#FFFFFF" opacity="0.92"/>
  <rect x="0" y="486" width="400" height="14" fill="#0F1115"/>
  <text x="200" y="497" font-family="Arial, Helvetica, sans-serif" font-size="10" fill="#4A505C" text-anchor="middle">visual-showcase</text>
</svg>